<?xml version="1.0" encoding="UTF-8" standalone="no"?>
<!DOCTYPE svg PUBLIC "-//W3C//DTD SVG 1.1//EN" "http://www.w3.org/Graphics/SVG/1.1/DTD/svg11.dtd">
<svg width="100%" height="100%" viewBox="0 0 5380 5380" version="1.1" xmlns="http://www.w3.org/2000/svg" xmlns:xlink="http://www.w3.org/1999/xlink" xml:space="preserve" xmlns:serif="http://www.serif.com/" style="fill-rule:evenodd;clip-rule:evenodd;stroke-linejoin:round;stroke-miterlimit:2;">
    <g transform="matrix(1,0,0,1,-11218,0)">
        <g id="Artboard9" transform="matrix(1,0,0,1,-0.465267,0)">
            <rect x="11218.465" y="0" width="5380" height="5380" style="fill:none;"/>
            <g transform="matrix(156.703555,0.061758,-0.061758,156.703555,14497.235455,3129.99174)">
                <g id="Layer-1" serif:id="Layer 1">
                    <path d="M5.862,-13.789C4.605,-20.186 0.194,-21.673 -4.733,-17.361C-10.187,-20.988 -14.364,-18.934 -14.765,-12.427C-21.144,-11.194 -22.62,-6.784 -18.309,-1.834C-21.931,3.645 -19.889,7.822 -13.404,8.201C-12.177,14.58 -7.767,16.056 -2.812,11.743C2.665,15.367 6.842,13.325 7.224,6.839C13.621,5.587 15.109,1.177 10.795,-3.755C14.423,-9.206 12.369,-13.383 5.862,-13.789" style="fill:rgb(63,90,36);fill-rule:nonzero;stroke:rgb(128,128,128);stroke-width:0.01px;"/>
                </g>
            </g>
        </g>
        <g id="Page-1" serif:id="Page 1">
        </g>
    </g>
</svg>
