<?xml version="1.0" encoding="UTF-8" standalone="no"?>
<!DOCTYPE svg PUBLIC "-//W3C//DTD SVG 1.1//EN" "http://www.w3.org/Graphics/SVG/1.1/DTD/svg11.dtd">
<svg width="100%" height="100%" viewBox="0 0 992 96" version="1.1" xmlns="http://www.w3.org/2000/svg" xmlns:xlink="http://www.w3.org/1999/xlink" xml:space="preserve" xmlns:serif="http://www.serif.com/" style="fill-rule:evenodd;clip-rule:evenodd;stroke-linejoin:round;stroke-miterlimit:2;">
    <g transform="matrix(1,0,0,1,-535.028333,-671.847778)">
        <g transform="matrix(5.555556,0,0,5.555556,0,0)">
            <g id="logo">
                <g transform="matrix(1,0,0,1,107.4001,123.6866)">
                    <path d="M0,11.714C-0.302,12.306 -0.723,12.811 -1.259,13.231C-1.796,13.651 -2.438,13.963 -3.184,14.165C-3.932,14.367 -4.748,14.468 -5.635,14.468C-6.398,14.468 -7.051,14.421 -7.595,14.328C-8.14,14.234 -8.592,14.122 -8.949,13.989C-9.307,13.858 -9.576,13.737 -9.754,13.628C-9.933,13.519 -10.046,13.464 -10.093,13.464C-10.14,13.464 -10.24,13.558 -10.396,13.745C-10.551,13.931 -10.691,14.11 -10.816,14.281L-11.025,14.281L-11.095,9.637L-10.863,9.637C-10.723,10.057 -10.544,10.466 -10.325,10.862C-10.108,11.259 -9.871,11.633 -9.614,11.982C-9.357,12.332 -9.085,12.64 -8.797,12.904C-8.51,13.169 -8.233,13.371 -7.969,13.511C-7.704,13.651 -7.355,13.791 -6.919,13.931C-6.483,14.071 -6.063,14.141 -5.658,14.141C-4.508,14.141 -3.573,13.826 -2.858,13.196C-2.142,12.566 -1.785,11.714 -1.785,10.641C-1.785,10.205 -1.855,9.824 -1.995,9.497C-2.135,9.171 -2.326,8.887 -2.566,8.645C-2.808,8.404 -3.092,8.198 -3.418,8.027C-3.745,7.856 -4.094,7.7 -4.468,7.56C-4.842,7.42 -5.169,7.303 -5.448,7.21C-5.729,7.117 -5.989,7.028 -6.231,6.942C-6.472,6.857 -6.72,6.771 -6.977,6.685C-7.233,6.6 -7.542,6.487 -7.899,6.346C-8.303,6.191 -8.692,5.977 -9.066,5.705C-9.439,5.433 -9.766,5.114 -10.046,4.748C-10.325,4.383 -10.551,3.978 -10.723,3.535C-10.893,3.091 -10.98,2.621 -10.98,2.123C-10.98,1.283 -10.826,0.559 -10.52,-0.048C-10.213,-0.655 -9.799,-1.16 -9.283,-1.565C-8.765,-1.969 -8.168,-2.268 -7.49,-2.463C-6.814,-2.657 -6.101,-2.754 -5.355,-2.754C-4.655,-2.754 -4.057,-2.696 -3.558,-2.58C-3.06,-2.463 -2.653,-2.334 -2.334,-2.194C-2.015,-2.055 -1.773,-1.926 -1.609,-1.809C-1.446,-1.693 -1.357,-1.635 -1.342,-1.635C-1.294,-1.635 -1.197,-1.728 -1.05,-1.914C-0.902,-2.101 -0.766,-2.288 -0.641,-2.475L-0.384,-2.475L-0.384,1.843L-0.641,1.843C-0.828,1.33 -1.07,0.82 -1.364,0.314C-1.661,-0.191 -2.002,-0.642 -2.391,-1.039C-2.78,-1.436 -3.224,-1.758 -3.722,-2.007C-4.219,-2.257 -4.772,-2.381 -5.378,-2.381C-5.861,-2.381 -6.316,-2.311 -6.744,-2.171C-7.171,-2.031 -7.545,-1.821 -7.864,-1.541C-8.183,-1.261 -8.432,-0.914 -8.61,-0.503C-8.789,-0.09 -8.879,0.381 -8.879,0.91C-8.879,1.734 -8.631,2.395 -8.134,2.893C-7.637,3.391 -6.993,3.788 -6.202,4.083C-5.892,4.208 -5.602,4.317 -5.33,4.41C-5.058,4.503 -4.79,4.593 -4.526,4.678C-4.262,4.764 -3.994,4.853 -3.724,4.946C-3.452,5.04 -3.168,5.142 -2.873,5.25C-1.819,5.639 -1,6.203 -0.418,6.942C0.164,7.681 0.456,8.602 0.456,9.707C0.456,10.454 0.304,11.123 0,11.714" style="fill:#1C2D0E;fill-rule:nonzero;"/>
                </g>
                <g transform="matrix(1,0,0,1,112.7221,135.8557)">
                    <path d="M0,-11.925C-0.242,-11.683 -0.541,-11.563 -0.899,-11.563C-1.241,-11.563 -1.538,-11.687 -1.785,-11.936C-2.034,-12.186 -2.159,-12.481 -2.159,-12.824C-2.159,-13.181 -2.039,-13.477 -1.797,-13.71C-1.556,-13.943 -1.256,-14.06 -0.899,-14.06C-0.541,-14.06 -0.242,-13.943 0,-13.71C0.24,-13.477 0.362,-13.181 0.362,-12.824C0.362,-12.465 0.24,-12.166 0,-11.925M-3.35,2.135L-3.35,1.902C-3.163,1.887 -2.976,1.867 -2.789,1.844C-2.603,1.82 -2.435,1.781 -2.288,1.727C-2.139,1.673 -2.016,1.598 -1.914,1.506C-1.813,1.412 -1.762,1.295 -1.762,1.155L-1.762,-6.849C-1.762,-6.974 -1.775,-7.082 -1.797,-7.176C-1.82,-7.269 -1.887,-7.354 -1.996,-7.432C-2.136,-7.526 -2.303,-7.619 -2.498,-7.713C-2.692,-7.806 -2.899,-7.891 -3.116,-7.969L-3.116,-8.109L0.035,-9.136L0.175,-9.136L0.175,1.295C0.205,1.451 0.272,1.563 0.372,1.634C0.474,1.704 0.594,1.754 0.734,1.785C0.875,1.816 1.026,1.836 1.19,1.844C1.354,1.852 1.512,1.871 1.668,1.902L1.668,2.135L-3.35,2.135Z" style="fill:#1C2D0E;fill-rule:nonzero;"/>
                </g>
                <g transform="matrix(1,0,0,1,115.0436,121.1189)">
                    <path d="M0,16.872L0,16.615C0.714,16.569 1.19,16.495 1.422,16.393C1.656,16.292 1.773,16.118 1.773,15.869L1.773,2.45C1.773,2.326 1.761,2.232 1.738,2.17C1.714,2.108 1.648,2.038 1.539,1.96C1.399,1.883 1.19,1.762 0.91,1.599C0.629,1.435 0.397,1.315 0.21,1.237L0.21,1.096L3.546,0L3.71,0L3.71,15.986C3.71,16.141 3.745,16.257 3.815,16.335C3.885,16.413 3.99,16.468 4.129,16.498C4.269,16.53 4.448,16.549 4.667,16.557C4.885,16.565 5.141,16.584 5.436,16.615L5.436,16.872L0,16.872Z" style="fill:#1C2D0E;fill-rule:nonzero;"/>
                </g>
                <g transform="matrix(1,0,0,1,131.5522,137.7804)">
                    <path d="M0,-10.524C-0.225,-10.493 -0.454,-10.434 -0.688,-10.349C-0.922,-10.263 -1.139,-10.135 -1.342,-9.964C-1.544,-9.792 -1.708,-9.568 -1.832,-9.287C-2.018,-8.851 -2.232,-8.339 -2.473,-7.748C-2.715,-7.156 -2.967,-6.534 -3.232,-5.88C-3.496,-5.227 -3.757,-4.574 -4.014,-3.92C-4.271,-3.266 -4.508,-2.668 -4.725,-2.123C-4.85,-1.843 -4.954,-1.606 -5.041,-1.411C-5.126,-1.217 -5.208,-1.034 -5.286,-0.863C-5.363,-0.692 -5.438,-0.528 -5.507,-0.373C-5.577,-0.217 -5.659,-0.038 -5.752,0.164C-5.799,0.257 -5.877,0.304 -5.986,0.304C-6.048,0.304 -6.094,0.284 -6.126,0.245C-6.156,0.207 -6.18,0.172 -6.196,0.141C-6.445,-0.497 -6.677,-1.1 -6.896,-1.668C-7.113,-2.236 -7.34,-2.819 -7.572,-3.418C-7.806,-4.017 -8.055,-4.659 -8.32,-5.343C-8.584,-6.028 -8.879,-6.798 -9.205,-7.654C-9.252,-7.778 -9.319,-7.946 -9.404,-8.155C-9.489,-8.366 -9.579,-8.587 -9.673,-8.821C-9.766,-9.054 -9.859,-9.279 -9.953,-9.498C-10.046,-9.715 -10.132,-9.894 -10.21,-10.034C-10.302,-10.127 -10.447,-10.232 -10.641,-10.349C-10.836,-10.466 -11.19,-10.539 -11.703,-10.571L-11.703,-10.828L-6.079,-10.828L-6.079,-10.571C-6.218,-10.555 -6.393,-10.536 -6.604,-10.513C-6.814,-10.489 -7.013,-10.454 -7.198,-10.408C-7.385,-10.361 -7.545,-10.295 -7.677,-10.209C-7.809,-10.124 -7.876,-9.995 -7.876,-9.824C-7.876,-9.746 -7.826,-9.559 -7.724,-9.264C-7.624,-8.968 -7.49,-8.603 -7.328,-8.167C-7.163,-7.732 -6.981,-7.249 -6.779,-6.72C-6.577,-6.191 -6.37,-5.662 -6.161,-5.134C-5.951,-4.604 -5.744,-4.091 -5.542,-3.593C-5.34,-3.095 -5.169,-2.66 -5.029,-2.286C-4.795,-2.861 -4.523,-3.547 -4.211,-4.34C-3.902,-5.134 -3.605,-5.911 -3.326,-6.673C-3.045,-7.436 -2.808,-8.105 -2.613,-8.68C-2.419,-9.256 -2.321,-9.614 -2.321,-9.754C-2.321,-9.972 -2.381,-10.139 -2.496,-10.256C-2.613,-10.373 -2.758,-10.454 -2.929,-10.5C-3.099,-10.548 -3.279,-10.571 -3.465,-10.571C-3.652,-10.571 -3.815,-10.579 -3.955,-10.594L-3.955,-10.828L0.571,-10.828L0.571,-10.571C0.416,-10.571 0.225,-10.555 0,-10.524" style="fill:#1C2D0E;fill-rule:nonzero;"/>
                </g>
                <g transform="matrix(1,0,0,1,137.9697,136.998)">
                    <path d="M0,-9.263C-0.397,-9.675 -0.93,-9.882 -1.598,-9.882C-2.034,-9.882 -2.428,-9.754 -2.777,-9.497C-3.128,-9.24 -3.431,-8.94 -3.687,-8.598C-3.944,-8.256 -4.143,-7.91 -4.283,-7.56C-4.423,-7.21 -4.508,-6.942 -4.54,-6.755L-3.582,-6.755C-3.303,-6.755 -3.026,-6.758 -2.754,-6.766C-2.483,-6.774 -2.198,-6.782 -1.902,-6.79C-1.607,-6.797 -1.281,-6.801 -0.922,-6.801C-0.688,-6.801 -0.471,-6.809 -0.269,-6.825C-0.067,-6.84 0.112,-6.879 0.267,-6.942C0.377,-7.065 0.459,-7.182 0.514,-7.292C0.567,-7.4 0.594,-7.564 0.594,-7.782C0.594,-8.357 0.397,-8.851 0,-9.263M2.671,-1.399C2.454,-0.971 2.157,-0.578 1.785,-0.22C1.411,0.138 0.963,0.433 0.444,0.666C-0.079,0.9 -0.658,1.016 -1.296,1.016C-2.089,1.016 -2.812,0.868 -3.465,0.573C-4.119,0.277 -4.676,-0.139 -5.135,-0.675C-5.594,-1.212 -5.948,-1.842 -6.196,-2.566C-6.445,-3.289 -6.569,-4.056 -6.569,-4.865C-6.569,-5.518 -6.452,-6.167 -6.22,-6.813C-5.986,-7.458 -5.656,-8.038 -5.228,-8.551C-4.799,-9.065 -4.278,-9.481 -3.665,-9.8C-3.049,-10.119 -2.369,-10.279 -1.623,-10.279C-1.015,-10.279 -0.444,-10.2 0.093,-10.045C0.629,-9.89 1.097,-9.652 1.493,-9.334C1.89,-9.015 2.212,-8.614 2.461,-8.132C2.71,-7.649 2.858,-7.081 2.905,-6.428L-4.587,-6.428C-4.587,-6.303 -4.594,-6.16 -4.61,-5.997C-4.625,-5.833 -4.632,-5.665 -4.632,-5.494C-4.632,-4.841 -4.54,-4.214 -4.353,-3.616C-4.166,-3.017 -3.894,-2.488 -3.535,-2.029C-3.178,-1.57 -2.727,-1.208 -2.182,-0.944C-1.638,-0.679 -1.007,-0.548 -0.292,-0.548C0.486,-0.548 1.167,-0.746 1.75,-1.142C2.334,-1.539 2.718,-2.025 2.905,-2.601L3.092,-2.554C3.029,-2.212 2.89,-1.827 2.671,-1.399" style="fill:#1C2D0E;fill-rule:nonzero;"/>
                </g>
                <g transform="matrix(1,0,0,1,149.3583,128.5987)">
                    <path d="M0,7.56C-0.242,8.004 -0.565,8.365 -0.969,8.646C-1.373,8.926 -1.837,9.128 -2.358,9.252C-2.879,9.377 -3.428,9.439 -4.002,9.439C-4.687,9.439 -5.333,9.377 -5.939,9.252C-6.547,9.128 -7.106,8.949 -7.619,8.715L-7.619,5.635L-7.432,5.635C-7.309,6.009 -7.154,6.402 -6.967,6.813C-6.782,7.226 -6.557,7.607 -6.294,7.957C-6.032,8.307 -5.713,8.595 -5.342,8.82C-4.97,9.046 -4.527,9.159 -4.015,9.159C-3.273,9.159 -2.68,8.946 -2.238,8.517C-1.796,8.089 -1.576,7.432 -1.576,6.545C-1.576,6.063 -1.727,5.662 -2.028,5.343C-2.331,5.025 -2.745,4.811 -3.273,4.701C-3.692,4.624 -4.094,4.538 -4.482,4.445C-4.868,4.351 -5.217,4.251 -5.527,4.142C-6.117,3.94 -6.592,3.589 -6.957,3.092C-7.321,2.593 -7.502,1.995 -7.502,1.294C-7.502,0.813 -7.402,0.377 -7.2,-0.012C-6.998,-0.401 -6.726,-0.735 -6.383,-1.016C-6.041,-1.296 -5.644,-1.509 -5.193,-1.658C-4.742,-1.805 -4.259,-1.879 -3.747,-1.879C-3.092,-1.879 -2.517,-1.821 -2.019,-1.704C-1.521,-1.588 -1.047,-1.443 -0.596,-1.272L-0.316,1.621L-0.501,1.668C-0.72,1.201 -0.937,0.77 -1.156,0.373C-1.373,-0.024 -1.615,-0.366 -1.879,-0.654C-2.144,-0.942 -2.443,-1.164 -2.777,-1.319C-3.112,-1.474 -3.497,-1.553 -3.932,-1.553C-4.198,-1.553 -4.458,-1.506 -4.714,-1.412C-4.971,-1.319 -5.196,-1.183 -5.39,-1.004C-5.586,-0.825 -5.744,-0.599 -5.869,-0.327C-5.994,-0.055 -6.056,0.26 -6.056,0.618C-6.056,1.193 -5.893,1.606 -5.567,1.854C-5.24,2.103 -4.827,2.29 -4.33,2.415C-3.987,2.492 -3.614,2.574 -3.209,2.659C-2.805,2.745 -2.455,2.827 -2.159,2.905C-1.459,3.076 -0.864,3.434 -0.374,3.978C0.117,4.523 0.362,5.191 0.362,5.985C0.362,6.592 0.24,7.117 0,7.56" style="fill:#1C2D0E;fill-rule:nonzero;"/>
                </g>
                <g transform="matrix(1,0,0,1,157.4667,134.5841)">
                    <path d="M0,-6.208L-3.548,-6.208L-3.548,-0.07C-3.548,0.723 -3.376,1.299 -3.034,1.657C-2.692,2.014 -2.249,2.194 -1.703,2.194C-1.253,2.194 -0.88,2.12 -0.583,1.972C-0.289,1.824 -0.032,1.594 0.187,1.283L0.327,1.354C0.232,1.587 0.105,1.831 -0.059,2.088C-0.222,2.345 -0.441,2.578 -0.713,2.788C-0.984,2.998 -1.304,3.161 -1.668,3.278C-2.034,3.395 -2.466,3.453 -2.964,3.453C-3.291,3.453 -3.604,3.403 -3.905,3.302C-4.204,3.201 -4.47,3.053 -4.701,2.858C-4.93,2.664 -5.12,2.447 -5.266,2.205C-5.412,1.964 -5.485,1.719 -5.485,1.47C-5.485,0.007 -5.477,-1.38 -5.46,-2.695C-5.445,-4.01 -5.438,-5.181 -5.438,-6.208L-7.141,-6.208L-7.141,-6.465L-3.778,-9.661L-3.595,-9.661L-3.595,-7.632L0.723,-7.632L0,-6.208Z" style="fill:#1C2D0E;fill-rule:nonzero;"/>
                </g>
                <g transform="matrix(1,0,0,1,165.8425,135.9023)">
                    <path d="M0,-7.094C-0.202,-6.868 -0.435,-6.756 -0.699,-6.756C-0.948,-6.756 -1.147,-6.798 -1.294,-6.884C-1.442,-6.969 -1.571,-7.067 -1.679,-7.176C-1.788,-7.285 -1.905,-7.382 -2.03,-7.468C-2.154,-7.553 -2.326,-7.596 -2.543,-7.596C-2.73,-7.596 -2.912,-7.529 -3.092,-7.398C-3.271,-7.265 -3.438,-7.098 -3.593,-6.896C-3.748,-6.694 -3.889,-6.464 -4.012,-6.207C-4.139,-5.951 -4.246,-5.705 -4.341,-5.472L-4.341,1.248C-4.294,1.388 -4.192,1.498 -4.037,1.575C-3.882,1.653 -3.706,1.707 -3.511,1.738C-3.317,1.77 -3.115,1.789 -2.905,1.797C-2.695,1.805 -2.511,1.824 -2.356,1.855L-2.356,2.089L-7.584,2.089L-7.584,1.855C-7.226,1.824 -6.919,1.754 -6.662,1.645C-6.405,1.536 -6.276,1.358 -6.276,1.109L-6.276,-6.779C-6.276,-6.903 -6.288,-6.997 -6.311,-7.059C-6.335,-7.121 -6.401,-7.191 -6.51,-7.269C-6.65,-7.347 -6.814,-7.444 -7.001,-7.561C-7.186,-7.677 -7.373,-7.775 -7.56,-7.853L-7.56,-7.993L-4.503,-9.183L-4.363,-9.183L-4.41,-5.939L-4.363,-5.939C-4.286,-6.125 -4.161,-6.398 -3.99,-6.756C-3.819,-7.114 -3.601,-7.475 -3.336,-7.841C-3.072,-8.206 -2.753,-8.521 -2.379,-8.787C-2.007,-9.051 -1.579,-9.183 -1.095,-9.183C-0.708,-9.183 -0.377,-9.066 -0.105,-8.833C0.167,-8.6 0.304,-8.303 0.304,-7.946C0.304,-7.604 0.202,-7.32 0,-7.094" style="fill:#1C2D0E;fill-rule:nonzero;"/>
                </g>
                <g transform="matrix(1,0,0,1,172.9255,136.998)">
                    <path d="M0,-9.263C-0.397,-9.675 -0.93,-9.882 -1.598,-9.882C-2.034,-9.882 -2.428,-9.754 -2.777,-9.497C-3.128,-9.24 -3.431,-8.94 -3.687,-8.598C-3.944,-8.256 -4.143,-7.91 -4.283,-7.56C-4.423,-7.21 -4.508,-6.942 -4.54,-6.755L-3.582,-6.755C-3.303,-6.755 -3.026,-6.758 -2.754,-6.766C-2.483,-6.774 -2.198,-6.782 -1.902,-6.79C-1.607,-6.797 -1.281,-6.801 -0.922,-6.801C-0.688,-6.801 -0.471,-6.809 -0.269,-6.825C-0.067,-6.84 0.112,-6.879 0.267,-6.942C0.377,-7.065 0.459,-7.182 0.514,-7.292C0.567,-7.4 0.594,-7.564 0.594,-7.782C0.594,-8.357 0.397,-8.851 0,-9.263M2.671,-1.399C2.454,-0.971 2.157,-0.578 1.785,-0.22C1.411,0.138 0.963,0.433 0.444,0.666C-0.079,0.9 -0.658,1.016 -1.296,1.016C-2.089,1.016 -2.812,0.868 -3.465,0.573C-4.119,0.277 -4.676,-0.139 -5.135,-0.675C-5.594,-1.212 -5.948,-1.842 -6.196,-2.566C-6.445,-3.289 -6.569,-4.056 -6.569,-4.865C-6.569,-5.518 -6.452,-6.167 -6.22,-6.813C-5.986,-7.458 -5.656,-8.038 -5.228,-8.551C-4.799,-9.065 -4.278,-9.481 -3.665,-9.8C-3.049,-10.119 -2.369,-10.279 -1.623,-10.279C-1.015,-10.279 -0.444,-10.2 0.093,-10.045C0.629,-9.89 1.097,-9.652 1.493,-9.334C1.89,-9.015 2.212,-8.614 2.461,-8.132C2.71,-7.649 2.858,-7.081 2.905,-6.428L-4.587,-6.428C-4.587,-6.303 -4.594,-6.16 -4.61,-5.997C-4.625,-5.833 -4.632,-5.665 -4.632,-5.494C-4.632,-4.841 -4.54,-4.214 -4.353,-3.616C-4.166,-3.017 -3.894,-2.488 -3.535,-2.029C-3.178,-1.57 -2.727,-1.208 -2.182,-0.944C-1.638,-0.679 -1.007,-0.548 -0.292,-0.548C0.486,-0.548 1.167,-0.746 1.75,-1.142C2.334,-1.539 2.718,-2.025 2.905,-2.601L3.092,-2.554C3.029,-2.212 2.89,-1.827 2.671,-1.399" style="fill:#1C2D0E;fill-rule:nonzero;"/>
                </g>
                <g transform="matrix(1,0,0,1,214.5699,121.1776)">
                    <path d="M0,16.802L-14.281,16.802L-14.281,16.569C-13.892,16.506 -13.531,16.405 -13.197,16.265C-12.862,16.125 -12.586,15.931 -12.369,15.682C-12.291,15.589 -12.229,15.453 -12.182,15.274C-12.135,15.095 -12.092,14.888 -12.053,14.655C-12.015,14.422 -11.987,14.177 -11.972,13.92C-11.957,13.663 -11.948,13.411 -11.948,13.162C-11.948,12.944 -11.945,12.648 -11.937,12.275C-11.929,11.902 -11.92,11.493 -11.913,11.05C-11.905,10.606 -11.902,10.151 -11.902,9.684L-11.902,3.78C-11.902,3.501 -11.905,3.213 -11.913,2.917C-11.92,2.622 -11.937,2.341 -11.96,2.077C-11.983,1.813 -12.022,1.575 -12.077,1.365C-12.132,1.155 -12.204,1.004 -12.299,0.91C-12.531,0.661 -12.78,0.502 -13.045,0.432C-13.309,0.362 -13.652,0.296 -14.072,0.233L-14.072,0L-1.19,0L0.397,3.85L0.164,3.967C-1.097,2.396 -2.279,1.338 -3.383,0.793C-3.648,0.669 -4.139,0.56 -4.854,0.467C-5.57,0.373 -6.44,0.327 -7.467,0.327C-7.794,0.327 -8.133,0.338 -8.482,0.362C-8.833,0.385 -9.085,0.412 -9.24,0.443C-9.272,0.692 -9.3,1.206 -9.322,1.984C-9.347,2.761 -9.357,3.664 -9.357,4.69L-9.357,6.184C-9.357,6.589 -9.354,6.919 -9.347,7.176C-9.339,7.433 -9.335,7.631 -9.335,7.771L-9.335,8.027L-8.868,8.027C-8.634,8.027 -8.365,8.02 -8.063,8.005C-7.759,7.989 -7.455,7.969 -7.153,7.946C-6.849,7.922 -6.597,7.888 -6.395,7.841C-5.927,7.732 -5.539,7.584 -5.228,7.398C-4.916,7.211 -4.664,6.985 -4.468,6.721C-4.274,6.456 -4.119,6.149 -4.002,5.799C-3.885,5.449 -3.78,5.056 -3.687,4.62L-3.406,4.62L-3.406,11.971L-3.687,11.971C-3.812,11.474 -4.002,10.96 -4.259,10.431C-4.515,9.902 -4.784,9.506 -5.064,9.241C-5.313,9.023 -5.612,8.844 -5.962,8.704C-6.313,8.564 -6.721,8.479 -7.188,8.447C-7.42,8.432 -7.616,8.421 -7.771,8.412C-7.926,8.405 -8.083,8.401 -8.238,8.401L-9.312,8.401C-9.342,8.619 -9.357,8.937 -9.357,9.357L-9.357,12.158C-9.357,12.407 -9.354,12.644 -9.347,12.87C-9.339,13.096 -9.335,13.286 -9.335,13.441C-9.319,13.94 -9.292,14.41 -9.252,14.854C-9.214,15.297 -9.125,15.628 -8.985,15.845C-8.844,16.064 -8.51,16.219 -7.981,16.312C-7.452,16.405 -6.876,16.452 -6.253,16.452C-5.989,16.452 -5.652,16.444 -5.239,16.428C-4.827,16.413 -4.395,16.374 -3.944,16.312C-3.446,16.25 -2.987,16.129 -2.568,15.95C-2.147,15.772 -1.743,15.518 -1.354,15.192C-0.965,14.865 -0.588,14.465 -0.222,13.99C0.144,13.516 0.521,12.944 0.91,12.275L1.167,12.344L0,16.802Z" style="fill:#1C2D0E;fill-rule:nonzero;"/>
                </g>
                <g transform="matrix(1,0,0,1,224.1733,128.5873)">
                    <path d="M0,7.56C-0.242,8.004 -0.565,8.365 -0.969,8.646C-1.373,8.926 -1.837,9.128 -2.358,9.253C-2.879,9.377 -3.428,9.439 -4.002,9.439C-4.687,9.439 -5.333,9.377 -5.939,9.253C-6.547,9.128 -7.106,8.949 -7.619,8.715L-7.619,5.635L-7.432,5.635C-7.309,6.009 -7.154,6.402 -6.967,6.813C-6.782,7.226 -6.557,7.607 -6.294,7.957C-6.032,8.307 -5.713,8.595 -5.342,8.82C-4.97,9.046 -4.527,9.159 -4.015,9.159C-3.273,9.159 -2.68,8.946 -2.238,8.517C-1.796,8.089 -1.576,7.432 -1.576,6.545C-1.576,6.063 -1.727,5.662 -2.028,5.343C-2.331,5.025 -2.745,4.811 -3.273,4.701C-3.692,4.624 -4.094,4.538 -4.482,4.445C-4.868,4.351 -5.217,4.251 -5.527,4.142C-6.117,3.94 -6.592,3.589 -6.957,3.092C-7.321,2.593 -7.502,1.995 -7.502,1.294C-7.502,0.813 -7.402,0.377 -7.2,-0.012C-6.998,-0.401 -6.726,-0.735 -6.383,-1.016C-6.041,-1.296 -5.644,-1.509 -5.193,-1.658C-4.742,-1.805 -4.259,-1.879 -3.747,-1.879C-3.092,-1.879 -2.517,-1.821 -2.019,-1.704C-1.521,-1.588 -1.047,-1.443 -0.596,-1.272L-0.316,1.621L-0.501,1.668C-0.72,1.201 -0.937,0.77 -1.156,0.373C-1.373,-0.024 -1.615,-0.366 -1.879,-0.654C-2.144,-0.942 -2.443,-1.164 -2.777,-1.319C-3.111,-1.474 -3.497,-1.553 -3.932,-1.553C-4.198,-1.553 -4.458,-1.506 -4.714,-1.412C-4.971,-1.319 -5.196,-1.183 -5.39,-1.004C-5.586,-0.825 -5.744,-0.599 -5.869,-0.327C-5.994,-0.055 -6.056,0.26 -6.056,0.618C-6.056,1.193 -5.893,1.606 -5.567,1.854C-5.24,2.103 -4.827,2.29 -4.33,2.415C-3.987,2.492 -3.614,2.574 -3.209,2.66C-2.805,2.745 -2.455,2.827 -2.159,2.905C-1.459,3.076 -0.864,3.434 -0.374,3.978C0.117,4.523 0.362,5.191 0.362,5.985C0.362,6.592 0.24,7.117 0,7.56" style="fill:#1C2D0E;fill-rule:nonzero;"/>
                </g>
                <g transform="matrix(1,0,0,1,232.2818,134.5727)">
                    <path d="M0,-6.208L-3.548,-6.208L-3.548,-0.07C-3.548,0.723 -3.376,1.299 -3.034,1.657C-2.692,2.014 -2.249,2.194 -1.703,2.194C-1.253,2.194 -0.88,2.12 -0.583,1.972C-0.289,1.824 -0.032,1.594 0.187,1.283L0.327,1.353C0.232,1.587 0.105,1.831 -0.059,2.088C-0.222,2.345 -0.441,2.578 -0.713,2.788C-0.985,2.998 -1.304,3.161 -1.668,3.278C-2.034,3.395 -2.466,3.453 -2.964,3.453C-3.291,3.453 -3.604,3.403 -3.905,3.302C-4.204,3.201 -4.47,3.053 -4.701,2.858C-4.93,2.664 -5.12,2.447 -5.266,2.205C-5.412,1.964 -5.485,1.719 -5.485,1.47C-5.485,0.007 -5.477,-1.38 -5.46,-2.695C-5.445,-4.01 -5.438,-5.181 -5.438,-6.208L-7.141,-6.208L-7.141,-6.465L-3.778,-9.661L-3.595,-9.661L-3.595,-7.632L0.723,-7.632L0,-6.208Z" style="fill:#1C2D0E;fill-rule:nonzero;"/>
                </g>
                <g transform="matrix(1,0,0,1,240.8916,126.9871)">
                    <path d="M0,11.016L-0.163,11.016L-0.163,8.659L-0.187,8.635C-0.359,8.9 -0.568,9.18 -0.817,9.475C-1.065,9.771 -1.346,10.04 -1.658,10.281C-1.967,10.522 -2.314,10.712 -2.695,10.853C-3.077,10.992 -3.485,11.062 -3.92,11.062C-4.916,11.062 -5.652,10.767 -6.126,10.176C-6.6,9.585 -6.837,8.721 -6.837,7.585L-6.837,1.634C-6.837,1.526 -6.846,1.413 -6.861,1.296C-6.876,1.179 -6.888,1.071 -6.896,0.97C-6.904,0.869 -6.923,0.794 -6.954,0.748C-7.016,0.608 -7.106,0.507 -7.223,0.445C-7.34,0.382 -7.467,0.336 -7.607,0.304C-7.747,0.273 -7.896,0.254 -8.051,0.246C-8.207,0.238 -8.355,0.227 -8.494,0.211L-8.494,-0.046L-4.901,-0.046L-4.901,6.745C-4.901,7.772 -4.745,8.53 -4.432,9.02C-4.119,9.51 -3.532,9.756 -2.672,9.756C-2.344,9.756 -2.059,9.713 -1.817,9.627C-1.574,9.542 -1.355,9.433 -1.161,9.301C-0.965,9.169 -0.785,9.017 -0.621,8.846C-0.457,8.675 -0.304,8.495 -0.163,8.309L-0.163,1.658C-0.163,1.503 -0.179,1.304 -0.21,1.063C-0.242,0.822 -0.304,0.639 -0.397,0.515C-0.583,0.436 -0.837,0.374 -1.155,0.328C-1.474,0.281 -1.805,0.243 -2.147,0.211L-2.147,-0.046L1.773,-0.046L1.773,9.172C1.773,9.297 1.785,9.39 1.808,9.452C1.832,9.515 1.898,9.585 2.007,9.662C2.147,9.741 2.353,9.842 2.625,9.965C2.897,10.09 3.127,10.191 3.314,10.269L3.314,10.409L0,11.016Z" style="fill:#1C2D0E;fill-rule:nonzero;"/>
                </g>
                <g transform="matrix(1,0,0,1,253.4227,129.8118)">
                    <path d="M0,-0.537C-0.342,-1.174 -0.778,-1.688 -1.307,-2.077C-1.835,-2.466 -2.326,-2.66 -2.777,-2.66C-3.383,-2.66 -3.902,-2.52 -4.328,-2.24C-4.757,-1.96 -5.111,-1.587 -5.39,-1.12C-5.67,-0.653 -5.877,-0.117 -6.009,0.49C-6.141,1.097 -6.208,1.719 -6.208,2.357C-6.208,2.995 -6.13,3.614 -5.974,4.212C-5.819,4.812 -5.585,5.34 -5.273,5.799C-4.964,6.258 -4.578,6.627 -4.119,6.908C-3.66,7.188 -3.127,7.328 -2.52,7.328C-1.882,7.328 -1.334,7.11 -0.875,6.674C-0.416,6.239 -0.125,5.687 0,5.018L0,-0.537ZM0.164,8.238L0.023,8.238L0.023,5.904L0,5.904C-0.451,6.682 -0.984,7.258 -1.598,7.631C-2.214,8.004 -2.979,8.191 -3.897,8.191C-4.473,8.191 -5.029,8.078 -5.565,7.853C-6.103,7.628 -6.58,7.277 -7.001,6.803C-7.42,6.328 -7.756,5.744 -8.004,5.052C-8.253,4.36 -8.377,3.563 -8.377,2.66C-8.377,1.851 -8.235,1.097 -7.946,0.397C-7.659,-0.303 -7.253,-0.914 -6.732,-1.435C-6.211,-1.956 -5.585,-2.365 -4.854,-2.66C-4.123,-2.956 -3.314,-3.104 -2.426,-3.104C-1.96,-3.104 -1.521,-3.064 -1.109,-2.987C-0.696,-2.909 -0.319,-2.816 0.023,-2.707C0.008,-2.941 -0.005,-3.259 -0.012,-3.664C-0.02,-4.068 -0.023,-4.48 -0.023,-4.9L-0.023,-6.884L-1.937,-7.608L-1.937,-7.748L1.773,-8.775L1.96,-8.775L1.96,6.371C2.084,6.449 2.318,6.557 2.66,6.698C3.002,6.838 3.321,6.97 3.617,7.094L3.617,7.258L0.164,8.238Z" style="fill:#1C2D0E;fill-rule:nonzero;"/>
                </g>
                <g transform="matrix(1,0,0,1,261.1118,135.8443)">
                    <path d="M0,-11.925C-0.242,-11.683 -0.541,-11.563 -0.899,-11.563C-1.241,-11.563 -1.538,-11.687 -1.785,-11.936C-2.034,-12.186 -2.159,-12.481 -2.159,-12.824C-2.159,-13.181 -2.039,-13.477 -1.797,-13.71C-1.556,-13.943 -1.256,-14.06 -0.899,-14.06C-0.541,-14.06 -0.242,-13.943 0,-13.71C0.24,-13.477 0.362,-13.181 0.362,-12.824C0.362,-12.465 0.24,-12.166 0,-11.925M-3.35,2.135L-3.35,1.902C-3.163,1.887 -2.976,1.867 -2.789,1.844C-2.603,1.82 -2.435,1.781 -2.288,1.727C-2.139,1.673 -2.016,1.598 -1.914,1.506C-1.813,1.412 -1.762,1.295 -1.762,1.155L-1.762,-6.849C-1.762,-6.974 -1.775,-7.082 -1.797,-7.176C-1.82,-7.269 -1.887,-7.354 -1.996,-7.432C-2.136,-7.526 -2.303,-7.619 -2.498,-7.713C-2.692,-7.806 -2.899,-7.891 -3.116,-7.969L-3.116,-8.109L0.035,-9.136L0.175,-9.136L0.175,1.295C0.205,1.451 0.272,1.563 0.372,1.634C0.474,1.704 0.594,1.754 0.734,1.785C0.875,1.816 1.026,1.836 1.19,1.844C1.354,1.852 1.512,1.871 1.668,1.902L1.668,2.135L-3.35,2.135Z" style="fill:#1C2D0E;fill-rule:nonzero;"/>
                </g>
                <g transform="matrix(1,0,0,1,272.4047,134.222)">
                    <path d="M0,-3.687C-0.115,-4.293 -0.307,-4.854 -0.571,-5.367C-0.836,-5.88 -1.187,-6.304 -1.621,-6.639C-2.057,-6.973 -2.593,-7.14 -3.232,-7.14C-3.745,-7.14 -4.204,-6.985 -4.608,-6.674C-5.014,-6.362 -5.359,-5.954 -5.647,-5.449C-5.934,-4.943 -6.153,-4.375 -6.301,-3.745C-6.448,-3.115 -6.522,-2.473 -6.522,-1.82C-6.522,-1.104 -6.46,-0.427 -6.335,0.211C-6.211,0.849 -6.009,1.412 -5.728,1.902C-5.448,2.392 -5.091,2.781 -4.655,3.069C-4.219,3.357 -3.698,3.501 -3.092,3.501C-2.484,3.501 -1.975,3.318 -1.563,2.952C-1.15,2.587 -0.816,2.128 -0.559,1.576C-0.302,1.024 -0.115,0.429 0,-0.209C0.117,-0.847 0.176,-1.438 0.176,-1.983C0.176,-2.512 0.117,-3.08 0,-3.687M1.902,0.292C1.607,1 1.211,1.618 0.713,2.147C0.214,2.677 -0.365,3.089 -1.026,3.384C-1.688,3.68 -2.384,3.827 -3.115,3.827C-3.721,3.827 -4.351,3.719 -5.005,3.501C-5.658,3.283 -6.261,2.937 -6.814,2.462C-7.366,1.988 -7.817,1.381 -8.168,0.642C-8.517,-0.097 -8.692,-0.964 -8.692,-1.96C-8.692,-2.675 -8.557,-3.368 -8.283,-4.036C-8.011,-4.706 -7.63,-5.297 -7.141,-5.81C-6.65,-6.324 -6.059,-6.735 -5.366,-7.047C-4.675,-7.358 -3.908,-7.514 -3.067,-7.514C-2.446,-7.514 -1.816,-7.397 -1.177,-7.164C-0.539,-6.931 0.039,-6.584 0.561,-6.125C1.082,-5.667 1.51,-5.091 1.844,-4.399C2.179,-3.706 2.346,-2.893 2.346,-1.96C2.346,-1.166 2.198,-0.416 1.902,0.292" style="fill:#1C2D0E;fill-rule:nonzero;"/>
                </g>
                <g transform="matrix(1,0,0,1,191.415,129.3691)">
                    <path d="M0,1.748C-0.238,1.748 -0.445,1.662 -0.623,1.489C-0.801,1.317 -0.89,1.106 -0.89,0.858C-0.89,0.61 -0.801,0.402 -0.623,0.236C-0.445,0.068 -0.238,-0.015 0,-0.015C0.247,-0.015 0.458,0.068 0.631,0.236C0.803,0.402 0.89,0.61 0.89,0.858C0.89,1.106 0.803,1.317 0.631,1.489C0.458,1.662 0.247,1.748 0,1.748M-0.955,4.077C-1.203,4.077 -1.413,3.991 -1.586,3.818C-1.758,3.646 -1.844,3.436 -1.844,3.187C-1.844,2.94 -1.758,2.732 -1.586,2.565C-1.413,2.397 -1.203,2.314 -0.955,2.314C-0.707,2.314 -0.499,2.397 -0.332,2.565C-0.165,2.732 -0.081,2.94 -0.081,3.187C-0.081,3.436 -0.165,3.646 -0.332,3.818C-0.499,3.991 -0.707,4.077 -0.955,4.077M-0.955,-0.566C-1.203,-0.566 -1.413,-0.652 -1.586,-0.825C-1.758,-0.997 -1.844,-1.207 -1.844,-1.456C-1.844,-1.703 -1.758,-1.911 -1.586,-2.078C-1.413,-2.246 -1.203,-2.329 -0.955,-2.329C-0.707,-2.329 -0.499,-2.246 -0.332,-2.078C-0.165,-1.911 -0.081,-1.703 -0.081,-1.456C-0.081,-1.207 -0.165,-0.997 -0.332,-0.825C-0.499,-0.652 -0.707,-0.566 -0.955,-0.566M-3.284,5.048C-3.533,5.048 -3.743,4.959 -3.915,4.781C-4.087,4.603 -4.174,4.396 -4.174,4.158C-4.174,3.911 -4.087,3.7 -3.915,3.527C-3.743,3.355 -3.533,3.269 -3.284,3.269C-3.036,3.269 -2.829,3.355 -2.661,3.527C-2.494,3.7 -2.411,3.911 -2.411,4.158C-2.411,4.396 -2.494,4.603 -2.661,4.781C-2.829,4.959 -3.036,5.048 -3.284,5.048M-3.284,1.748C-3.533,1.748 -3.743,1.662 -3.915,1.489C-4.087,1.317 -4.174,1.106 -4.174,0.858C-4.174,0.61 -4.087,0.402 -3.915,0.236C-3.743,0.068 -3.533,-0.015 -3.284,-0.015C-3.036,-0.015 -2.829,0.068 -2.661,0.236C-2.494,0.402 -2.411,0.61 -2.411,0.858C-2.411,1.106 -2.494,1.317 -2.661,1.489C-2.829,1.662 -3.036,1.748 -3.284,1.748M-3.284,-1.536C-3.533,-1.536 -3.743,-1.622 -3.915,-1.795C-4.087,-1.967 -4.174,-2.173 -4.174,-2.41C-4.174,-2.658 -4.087,-2.868 -3.915,-3.041C-3.743,-3.213 -3.533,-3.3 -3.284,-3.3C-3.036,-3.3 -2.829,-3.213 -2.661,-3.041C-2.494,-2.868 -2.411,-2.658 -2.411,-2.41C-2.411,-2.173 -2.494,-1.967 -2.661,-1.795C-2.829,-1.622 -3.036,-1.536 -3.284,-1.536M-5.598,4.077C-5.846,4.077 -6.056,3.991 -6.229,3.818C-6.401,3.646 -6.487,3.436 -6.487,3.187C-6.487,2.94 -6.401,2.732 -6.229,2.565C-6.056,2.397 -5.846,2.314 -5.598,2.314C-5.35,2.314 -5.142,2.397 -4.975,2.565C-4.808,2.732 -4.724,2.94 -4.724,3.187C-4.724,3.436 -4.808,3.646 -4.975,3.818C-5.142,3.991 -5.35,4.077 -5.598,4.077M-5.598,-0.566C-5.846,-0.566 -6.056,-0.652 -6.229,-0.825C-6.401,-0.997 -6.487,-1.207 -6.487,-1.456C-6.487,-1.703 -6.401,-1.911 -6.229,-2.078C-6.056,-2.246 -5.846,-2.329 -5.598,-2.329C-5.35,-2.329 -5.142,-2.246 -4.975,-2.078C-4.808,-1.911 -4.724,-1.703 -4.724,-1.456C-4.724,-1.207 -4.808,-0.997 -4.975,-0.825C-5.142,-0.652 -5.35,-0.566 -5.598,-0.566M-6.569,1.748C-6.816,1.748 -7.027,1.662 -7.199,1.489C-7.372,1.317 -7.458,1.106 -7.458,0.858C-7.458,0.61 -7.372,0.402 -7.199,0.236C-7.027,0.068 -6.816,-0.015 -6.569,-0.015C-6.32,-0.015 -6.113,0.068 -5.946,0.236C-5.779,0.402 -5.695,0.61 -5.695,0.858C-5.695,1.106 -5.779,1.317 -5.946,1.489C-6.113,1.662 -6.32,1.748 -6.569,1.748" style="fill:#1C2D0E;fill-rule:nonzero;"/>
                </g>
            </g>
        </g>
    </g>
</svg>
